<svg xmlns="http://www.w3.org/2000/svg" viewBox="0 0 202.01 59.09"><defs><style>.cls-1{fill:#1d242c;}.cls-2{fill:#cd232d;}.cls-3{fill:#ff6d00;}.cls-4{fill:#23aaa8;}.cls-5{fill:#ffc800;}</style></defs><g id="Layer_2" data-name="Layer 2"><g id="Layer_1-2" data-name="Layer 1"><path class="cls-1" d="M92.13,49V46.18h10c-.07,9-5.86,12.91-11.89,12.91a13,13,0,1,1,0-25.91,13.58,13.58,0,0,1,9.39,3.42L98,38.94a11.8,11.8,0,0,0-7.8-2.9c-6.13,0-9.88,4.48-9.88,10.24a10,10,0,0,0,10.14,10c4.28,0,7.94-2.7,8.33-7.21Z"/><path class="cls-1" d="M104.6,58.56V33.67h3.16V55.76h10.57v2.8Z"/><path class="cls-1" d="M130.94,59.09a13,13,0,1,1,0-25.91,13,13,0,0,1,13.3,13.07C144.24,53.36,138.15,59.09,130.94,59.09Zm0-23.05a9.89,9.89,0,0,0-10.08,10c0,5.39,4.38,10.23,9.85,10.23A10.11,10.11,0,0,0,130.94,36Z"/><path class="cls-1" d="M147.23,58.59V33.67h5.37c4.8,0,8.62,1.32,8.62,6.39a6,6,0,0,1-3.91,5.1c2.46.43,6,2.5,6,6.25,0,4.45-3.16,7.18-9.32,7.18ZM152.4,44.4c3.39,0,5.5-1.51,5.5-4.24s-2-3.66-4.71-3.66h-2.8v7.9Zm2,11.39c3.75,0,5.5-1.77,5.5-4.34s-2.17-4.22-5.47-4.22h-4.08v8.56Z"/><path class="cls-1" d="M183.64,58.59,181,52.73H169.12l-2.7,5.86h-3.49L175,32.78l12.12,25.81Zm-8.07-17.68A14.24,14.24,0,0,1,175,39.5a10.59,10.59,0,0,1-.52,1.41l-4.12,9h9.29Z"/><path class="cls-1" d="M188.28,58.56V33.67h3.16V55.76H202v2.8Z"/><path class="cls-2" d="M32.56,30a5.4,5.4,0,0,0-5.4,5.4V58.54H53.78a4.39,4.39,0,0,0,4.4-4.39V32.79A2.76,2.76,0,0,0,55.41,30Zm1.87,9.87a2.7,2.7,0,1,1,2.7-2.7A2.7,2.7,0,0,1,34.43,39.9Zm10.9,12.46a5.41,5.41,0,1,1,4.25-4.25A5.42,5.42,0,0,1,45.33,52.36Z"/><path class="cls-3" d="M19.45,30H2.76A2.75,2.75,0,0,0,0,32.78V54.09a4.46,4.46,0,0,0,4.46,4.45H24.88V35.46A5.43,5.43,0,0,0,19.45,30Zm-8,18.73A4.48,4.48,0,0,1,6,43.32,4.41,4.41,0,0,1,9.26,40.1a4.48,4.48,0,0,1,5.44,5.44A4.39,4.39,0,0,1,11.48,48.76Zm6.82-8.93A2.73,2.73,0,0,1,15,36.55a2.7,2.7,0,0,1,2-2,2.73,2.73,0,0,1,1.25,5.31Z"/><path class="cls-4" d="M4.42.38A4.41,4.41,0,0,0,0,4.79V25a2.77,2.77,0,0,0,2.77,2.77H19.58a5.3,5.3,0,0,0,5.3-5.3V.38Zm6.72,17.05a4.48,4.48,0,1,1,3.66-3.65A4.48,4.48,0,0,1,11.14,17.43Zm7.2,5.71A2.76,2.76,0,0,1,15,19.82a2.71,2.71,0,0,1,2.06-2.05,2.76,2.76,0,0,1,3.31,3.32A2.72,2.72,0,0,1,18.34,23.14Z"/><path class="cls-5" d="M53.65.38H27.16V22.32a5.43,5.43,0,0,0,5.43,5.43H55.44A2.74,2.74,0,0,0,58.18,25V4.9A4.52,4.52,0,0,0,53.65.38ZM35,23.05a2.71,2.71,0,0,1-3.26-3.26,2.67,2.67,0,0,1,2-2A2.71,2.71,0,0,1,37.06,21,2.67,2.67,0,0,1,35,23.05Zm11-7.53a5.44,5.44,0,0,1-6.92-6.91A5.18,5.18,0,0,1,42.47,5.3a5.43,5.43,0,0,1,6.92,6.91A5.2,5.2,0,0,1,46.08,15.52Z"/><path class="cls-1" d="M77,1.13a.77.77,0,0,1,.74-.74h4.64a.74.74,0,0,1,.73.74v9.81H94.2V1.13a.74.74,0,0,1,.74-.74h4.63a.77.77,0,0,1,.74.74V26.9a.77.77,0,0,1-.74.74H94.94a.74.74,0,0,1-.74-.74V16.66H83.06V26.9a.74.74,0,0,1-.73.74H77.69A.77.77,0,0,1,77,26.9Z"/><path class="cls-1" d="M117.25,0a13.1,13.1,0,0,1,9.42,3.62.72.72,0,0,1,0,1.09l-3,3.15a.67.67,0,0,1-1,0,8,8,0,0,0-5.25-2,7.76,7.76,0,0,0-7.63,8,7.71,7.71,0,0,0,7.67,7.9,8.21,8.21,0,0,0,5.21-1.87.77.77,0,0,1,1,0l3,3.23a.78.78,0,0,1,0,1.05A13.36,13.36,0,0,1,117.25,28a14,14,0,1,1,0-28Z"/><path class="cls-1" d="M129.92.7a.73.73,0,0,1,.74-.7h1l15.53,15h0V1.13a.74.74,0,0,1,.74-.74h4.67a.77.77,0,0,1,.74.74V27.32a.74.74,0,0,1-.74.71H152a1.14,1.14,0,0,1-.51-.2L136.11,12.38h0V26.9a.74.74,0,0,1-.74.74H130.7a.77.77,0,0,1-.74-.74Z"/></g></g></svg>